<svg width="62" height="62" viewBox="0 0 62 62" fill="none" xmlns="http://www.w3.org/2000/svg">
<g clip-path="url(#clip0_1523_35225)">
<path d="M37.7941 8.30714C37.6401 8.13774 37.4505 8.00415 37.2392 7.91603C37.0279 7.8279 36.7998 7.78712 36.571 7.79688C36.346 7.79688 13.386 8.497 2.50703 0.312998C2.17456 0.0662406 1.75839 -0.0401436 1.34834 0.0170992C0.938283 0.0743421 0.567309 0.290778 0.315133 0.61915C0.0669071 0.952529 -0.0402234 1.37007 0.0170373 1.78175C0.074298 2.19343 0.291258 2.56587 0.621041 2.81886C10.221 10.0379 27.4351 10.9048 34.3891 10.9448H34.8271L33.135 22.772C33.1038 22.976 33.1144 23.1844 33.166 23.3843C33.2175 23.5842 33.309 23.7715 33.435 23.9351C33.6209 24.1817 33.8755 24.3679 34.1669 24.4702C34.4583 24.5726 34.7734 24.5866 35.0727 24.5103C35.372 24.434 35.642 24.2709 35.8488 24.0415C36.0556 23.8121 36.19 23.5267 36.2351 23.2212L38.1831 9.57911C38.2149 9.35155 38.1965 9.11964 38.1293 8.89991C38.0621 8.68018 37.9478 8.47798 37.7941 8.30714V8.30714Z" fill="#000021"/>
<path d="M15.5176 33.398C10.9472 32.4698 6.47499 31.111 2.16067 29.3399C1.87445 29.2228 1.55994 29.1935 1.25687 29.2549C0.953796 29.3164 0.675621 29.4659 0.45755 29.6851C0.239479 29.9044 0.0913171 30.1835 0.0315245 30.4869C-0.0282681 30.7903 0.00303385 31.1046 0.121612 31.3902C0.280435 31.7731 0.584642 32.0771 0.96756 32.2359C5.55137 34.146 10.3215 35.5745 15.2007 36.4981C15.5888 36.4986 15.9633 36.3552 16.2515 36.0953C16.5397 35.8354 16.721 35.4774 16.7605 35.0914C16.8 34.7053 16.6948 34.3183 16.4651 34.0054C16.2355 33.6926 15.8978 33.476 15.5176 33.398V33.398Z" fill="#000021"/>
<path d="M60.0085 52.5976C59.8024 52.5982 59.5986 52.6397 59.4086 52.7196C47.4896 57.6446 36.6316 58.3784 26.6596 58.4394H26.3234L24.1315 40.8925C23.3155 34.3675 23.0094 31.9716 22.9794 31.0536L22.9584 31.0234L22.9794 31.0126C22.9584 30.5126 23.0305 30.4936 23.1325 30.4526L23.4174 30.3393L23.4784 30.4316C30.0144 30.4216 51.0274 29.7693 60.9484 22.2953C61.1125 22.1721 61.2509 22.0179 61.3554 21.8412C61.4599 21.6645 61.5286 21.4688 61.5575 21.2655C61.5865 21.0623 61.5751 20.8555 61.5241 20.6567C61.473 20.4578 61.3832 20.271 61.2599 20.1069C61.1367 19.9427 60.9825 19.8046 60.8058 19.7001C60.6291 19.5956 60.4336 19.5269 60.2304 19.498C60.0272 19.469 59.8201 19.4806 59.6212 19.5317C59.4224 19.5827 59.2356 19.6721 59.0714 19.7953C48.1934 27.9823 21.3584 27.2794 21.0924 27.2694H21.0424C20.8252 27.269 20.6104 27.3139 20.4118 27.4018C20.2132 27.4896 20.0353 27.6182 19.8896 27.7792C19.7363 27.9469 19.621 28.1462 19.5519 28.3627C19.4829 28.5792 19.4616 28.8081 19.4894 29.0336L23.3835 60.2016C23.4316 60.5816 23.6168 60.9307 23.9042 61.184C24.1916 61.4373 24.5614 61.5774 24.9445 61.5776C35.2115 61.5776 47.2726 61.1182 60.6086 55.6132C60.9435 55.4741 61.2199 55.2232 61.3908 54.9032C61.5616 54.5833 61.6163 54.2141 61.5456 53.8583C61.4748 53.5026 61.2831 53.1823 61.0028 52.9521C60.7226 52.7218 60.3712 52.596 60.0085 52.5956V52.5976Z" fill="#000021"/>
<path d="M59.5015 10.692C59.4221 10.5023 59.305 10.3307 59.1578 10.1871C59.0105 10.0435 58.836 9.9308 58.6443 9.85607C58.2608 9.70207 57.8321 9.70625 57.4515 9.8673C57.0677 10.0299 56.7637 10.3376 56.6055 10.7233L55.7794 12.7931L55.3714 12.2521C51.8983 7.64725 47.2041 4.10824 41.8214 2.03624C41.6283 1.95786 41.4216 1.91851 41.2132 1.92101C41.0048 1.92351 40.7991 1.9679 40.608 2.05089C40.4168 2.13389 40.244 2.25387 40.0999 2.40441C39.9558 2.55495 39.8432 2.73276 39.7686 2.92736C39.6941 3.12195 39.6592 3.32943 39.6658 3.53771C39.6725 3.74599 39.7204 3.95078 39.8072 4.14025C39.894 4.32972 40.0176 4.50014 40.171 4.64123C40.3243 4.78231 40.5045 4.89134 40.7005 4.96203C45.6902 6.87451 50.0181 10.1935 53.1595 14.5162L53.5164 15.0162L50.0093 15.608C49.6219 15.6721 49.2727 15.8799 49.0311 16.1896C48.7895 16.4992 48.6732 16.888 48.7051 17.2794C48.7371 17.6708 48.915 18.0361 49.2037 18.3024C49.4923 18.5687 49.8707 18.7165 50.2635 18.7169C50.5495 18.6969 56.2383 17.7691 56.6363 17.6471C57.3293 17.3921 57.4513 17.1271 58.5423 14.3331C58.8083 13.6711 59.1233 12.8651 59.5113 11.8971C59.5905 11.7058 59.6304 11.5006 59.6287 11.2936C59.627 11.0866 59.5839 10.8819 59.5015 10.692V10.692Z" fill="#000021"/>
<path d="M17.0351 54.7885C13.6572 52.8397 10.723 50.2076 8.42007 47.0605L8.05313 46.5605L11.5609 45.9696C11.7657 45.9382 11.9623 45.8661 12.1391 45.7582C12.3159 45.6503 12.4694 45.5084 12.591 45.3407C12.7126 45.1731 12.7997 44.9832 12.8473 44.7817C12.8949 44.5801 12.902 44.3708 12.8683 44.1664C12.8346 43.9621 12.7606 43.7668 12.6508 43.5912C12.5409 43.4156 12.3974 43.2632 12.2284 43.1435C12.0594 43.0238 11.8683 42.9388 11.6662 42.8935C11.4641 42.8481 11.2549 42.8433 11.0509 42.8793C9.86793 43.0733 8.90991 43.2363 8.12491 43.3583C4.80091 43.8993 4.68893 43.9293 4.30093 44.3583C4.10693 44.5823 4.10698 44.5823 3.10098 47.0903L2.06094 49.6806C1.96381 49.919 1.92708 50.1775 1.95376 50.4335C1.98045 50.6896 2.06981 50.9351 2.21402 51.1484C2.35966 51.3585 2.55383 51.5304 2.78018 51.6493C3.00652 51.7683 3.25838 51.8308 3.51407 51.8315C3.82627 51.8345 4.13188 51.7427 4.39053 51.5678C4.64918 51.3929 4.8486 51.1433 4.96206 50.8525L5.798 48.7934L6.20596 49.3236C8.70589 52.6523 11.8598 55.4347 15.474 57.5004C15.7078 57.6408 15.9753 57.7146 16.248 57.7143C16.5924 57.7129 16.927 57.5983 17.1999 57.3881C17.4727 57.1779 17.669 56.8839 17.7582 56.5512C17.8475 56.2185 17.8248 55.8658 17.6938 55.5473C17.5627 55.2287 17.3306 54.9621 17.0331 54.7885H17.0351Z" fill="#000021"/>
<path d="M18.4833 14.5157C17.9989 13.736 17.323 13.0934 16.5199 12.649C15.7168 12.2045 14.8131 11.9729 13.8952 11.9766C13.7952 11.9766 13.7012 11.9864 13.6002 11.9864C12.6303 12.0283 11.6894 12.3308 10.8766 12.8619C10.0638 13.3929 9.40931 14.133 8.98135 15.0044C8.68428 15.6021 8.52022 16.2573 8.50088 16.9244C8.48154 17.5915 8.60733 18.2549 8.86929 18.8687C9.13377 19.502 9.53217 20.0705 10.0373 20.5352C10.5423 20.9999 11.1422 21.3497 11.7953 21.5606C12.0202 21.6339 12.2267 21.7545 12.4008 21.9146C12.5749 22.0747 12.7125 22.2708 12.8043 22.4888C12.8907 22.6892 12.9326 22.9059 12.9274 23.1241C12.9222 23.3422 12.8701 23.5564 12.7743 23.7525C12.5902 24.1223 12.3107 24.4363 11.9647 24.6622C11.6188 24.888 11.219 25.0178 10.8063 25.0376C10.3936 25.0573 9.98308 24.9677 9.61611 24.7779C9.24915 24.5881 8.93868 24.3047 8.71621 23.9566C8.60742 23.7817 8.4649 23.6303 8.29678 23.5113C8.12866 23.3923 7.93833 23.3082 7.73721 23.2637C7.62301 23.2397 7.50695 23.2259 7.39028 23.2227C7.09406 23.2215 6.80395 23.3068 6.55532 23.4678C6.20546 23.691 5.9583 24.0436 5.86831 24.4488C5.77832 24.8539 5.85288 25.2781 6.07534 25.6285C6.59399 26.4453 7.32019 27.1097 8.17984 27.5538C9.03948 27.9978 10.0016 28.2055 10.9679 28.1558C11.9342 28.1061 12.8701 27.801 13.6796 27.271C14.4891 26.741 15.1433 26.0054 15.5753 25.1397C15.8724 24.5421 16.0362 23.8869 16.0556 23.2198C16.0749 22.5527 15.9491 21.8893 15.6872 21.2754C15.4226 20.6422 15.024 20.0736 14.5189 19.6089C14.0139 19.1442 13.4142 18.7946 12.7611 18.5835C12.5362 18.5101 12.3297 18.3891 12.1554 18.229C11.9812 18.069 11.8435 17.8737 11.7514 17.6558C11.6654 17.4553 11.6235 17.2382 11.6288 17.0201C11.6342 16.8019 11.6867 16.5877 11.7824 16.3916C11.9679 16.0224 12.2479 15.7089 12.5941 15.4834C12.9404 15.258 13.3402 15.1288 13.7528 15.1084C14.1655 15.0881 14.5763 15.1774 14.943 15.3677C15.3097 15.5581 15.6193 15.8423 15.8402 16.1914C16.062 16.5415 16.4137 16.7892 16.818 16.8799C17.2223 16.9707 17.6462 16.8971 17.9962 16.6753C18.3463 16.4536 18.594 16.1021 18.6847 15.6978C18.7755 15.2935 18.7021 14.8697 18.4804 14.5196L18.4833 14.5157Z" fill="#000021"/>
<path d="M28.8424 13.6387C28.5324 13.6377 28.2292 13.7288 27.971 13.9004C27.7129 14.072 27.5115 14.3164 27.3924 14.6025C27.2734 14.8887 27.2421 15.2038 27.3023 15.5078C27.3626 15.8119 27.5116 16.0909 27.7308 16.3101C27.95 16.5292 28.2292 16.6786 28.5333 16.7388C28.8373 16.799 29.1524 16.7675 29.4386 16.6484C29.7247 16.5294 29.9691 16.328 30.1407 16.0698C30.3123 15.8117 30.4034 15.5087 30.4024 15.1987C30.4003 14.7856 30.2353 14.3898 29.9432 14.0977C29.6511 13.8056 29.2555 13.6408 28.8424 13.6387V13.6387Z" fill="#000021"/>
<path d="M52.6294 46.4596C52.4749 46.075 52.1744 45.7672 51.7934 45.6037C51.6037 45.5229 51.3995 45.4811 51.1933 45.4811C50.9871 45.4811 50.783 45.5229 50.5932 45.6037C50.4015 45.679 50.2275 45.7931 50.0818 45.9386C49.936 46.0842 49.8219 46.2583 49.7463 46.4499C49.0843 48.0299 47.8603 49.9978 45.8413 50.3498C44.8363 50.481 43.8146 50.3471 42.8774 49.9611C41.9403 49.5752 41.1203 48.9505 40.4992 48.1496L40.0503 47.6296L43.2834 47.0588C43.4851 47.0236 43.6778 46.9489 43.8506 46.839C44.0234 46.7292 44.1728 46.5863 44.2903 46.4186C44.4077 46.2509 44.4908 46.0619 44.5349 45.862C44.579 45.6621 44.5833 45.4551 44.5473 45.2536C44.4749 44.8443 44.2432 44.4803 43.9031 44.2414C43.5629 44.0024 43.142 43.9081 42.7324 43.9787L38.6033 44.7126L38.5112 44.3766C38.3311 43.7223 38.2116 43.0528 38.1543 42.3766L38.1343 42.0295L42.2634 41.3058C42.673 41.2341 43.0374 41.0027 43.2763 40.6623C43.5153 40.3219 43.6091 39.9005 43.5373 39.4909C43.4656 39.0813 43.2342 38.7166 42.8938 38.4777C42.5534 38.2388 42.132 38.1447 41.7224 38.2165L38.4902 38.7878L38.7353 38.1554C39.0454 37.1904 39.6015 36.3231 40.3489 35.6384C41.0962 34.9536 42.0089 34.4753 42.9973 34.2507C45.0363 33.8937 46.8414 35.3309 48.0034 36.5959C48.2857 36.8995 48.6763 37.0793 49.0906 37.0964C49.5048 37.1134 49.909 36.9661 50.2153 36.6867C50.369 36.5484 50.4932 36.3808 50.5808 36.1935C50.6684 36.0063 50.7176 35.8034 50.7253 35.5968C50.7398 35.1823 50.5895 34.7788 50.3074 34.4748C47.6774 31.6098 44.5773 30.5089 41.5903 31.3649C38.3993 32.2729 35.9622 35.2394 35.2182 39.1134L35.1672 39.3786L34.0454 39.5729C33.6391 39.6481 33.279 39.8801 33.0432 40.2194C32.8074 40.5587 32.715 40.9775 32.7861 41.3844C32.8573 41.7914 33.0862 42.1541 33.4231 42.3932C33.76 42.6324 34.1778 42.7289 34.5854 42.6618L34.7492 42.6315L35.0493 42.8249L35.0803 43.0798C35.0965 43.3642 35.134 43.6466 35.1924 43.9255C35.2372 44.2111 35.2987 44.4941 35.3764 44.7726L35.4162 44.9357L35.2334 45.3127L35.0393 45.3337C34.8378 45.3703 34.6455 45.4463 34.4734 45.5573C34.3012 45.6683 34.1526 45.8122 34.0361 45.9806C33.9196 46.1491 33.8377 46.339 33.7947 46.5392C33.7516 46.7395 33.7484 46.9462 33.7854 47.1476C33.8205 47.3503 33.8954 47.5439 34.0058 47.7175C34.1163 47.891 34.2601 48.0413 34.4289 48.1589C34.5978 48.2764 34.7882 48.3591 34.9892 48.4025C35.1903 48.4459 35.398 48.4492 35.6003 48.4118L36.7214 48.2189L36.8542 48.4426C38.8832 51.8276 42.1862 53.7955 45.5002 53.5505C48.6002 53.3365 51.1284 51.2366 52.6274 47.6506C52.7081 47.4624 52.7496 47.26 52.75 47.0553C52.7503 46.8507 52.7094 46.648 52.6294 46.4596V46.4596Z" fill="#000021"/>
</g>
<defs>
<clipPath id="clip0_1523_35225">
<rect width="61.579" height="61.579" fill="white"/>
</clipPath>
</defs>
</svg>
