<?xml version="1.0" standalone="no"?>
<!DOCTYPE svg PUBLIC "-//W3C//DTD SVG 20010904//EN"
 "http://www.w3.org/TR/2001/REC-SVG-20010904/DTD/svg10.dtd">
<svg version="1.0" xmlns="http://www.w3.org/2000/svg"
 width="54.000000pt" height="50.000000pt" viewBox="0 0 54.000000 50.000000"
 preserveAspectRatio="xMidYMid meet">

<g transform="translate(0.000000,50.000000) scale(0.100000,-0.100000)"
fill="#000000" stroke="none">
<path d="M245 372 c-207 -89 -205 -87 -205 -111 0 -13 15 -24 52 -37 49 -18
52 -21 71 -77 10 -32 26 -61 34 -64 8 -3 26 6 41 20 l27 26 45 -34 c48 -37 71
-43 87 -22 14 16 76 345 69 363 -3 8 -13 14 -23 13 -10 0 -99 -35 -198 -77z
m164 -118 c-18 -87 -33 -161 -35 -163 -2 -2 -27 14 -56 37 l-53 41 -27 -26
-28 -27 0 34 c0 29 12 46 83 117 46 46 81 83 79 83 -3 0 -50 -27 -104 -61
l-99 -60 -52 17 c-43 14 -48 19 -32 26 186 79 350 146 352 144 2 -1 -11 -74
-28 -162z"/>
</g>
</svg>
