<?xml version="1.0" standalone="no"?>
<!DOCTYPE svg PUBLIC "-//W3C//DTD SVG 20010904//EN"
 "http://www.w3.org/TR/2001/REC-SVG-20010904/DTD/svg10.dtd">
<svg version="1.0" xmlns="http://www.w3.org/2000/svg"
 width="50.000000pt" height="50.000000pt" viewBox="0 0 50.000000 50.000000"
 preserveAspectRatio="xMidYMid meet">

<g transform="translate(0.000000,50.000000) scale(0.100000,-0.100000)"
fill="#000000" stroke="none">
<path d="M160 465 c-106 -48 -158 -172 -118 -282 10 -27 9 -42 -5 -85 -9 -28
-15 -54 -12 -56 2 -2 27 4 55 13 44 15 58 15 96 5 103 -29 205 7 261 92 24 36
28 52 28 113 0 61 -4 77 -28 113 -43 65 -97 96 -176 99 -44 2 -78 -2 -101 -12z
m142 -25 c79 -22 131 -91 131 -175 0 -84 -52 -153 -131 -175 -49 -13 -63 -13
-117 6 -35 11 -54 13 -76 5 -31 -11 -35 -5 -20 34 5 12 1 34 -10 60 -23 49
-24 85 -4 133 21 49 52 81 100 103 46 21 75 23 127 9z"/>
<path d="M144 335 c-13 -52 44 -129 120 -160 31 -13 44 -14 67 -4 36 14 37 42
2 58 -22 10 -29 9 -41 -3 -13 -13 -19 -13 -43 0 -31 16 -53 49 -44 64 4 6 4
24 0 40 -9 40 -51 43 -61 5z"/>
</g>
</svg>
